# xmcd CD database file
# Copyright (C) 1993-1996 Ti Kan
#
# Track frame offsets:
# 150
# 19842
# 33210
# 45357
# 57167
# 67240
# 79102
# 91385
# 104022
# 116022
# 128845
# 139325
# 154470
# 185532
# 199427
# 213030
# 225705
# 238655
# 252185
# 264540
# 275645
# 286620
# 300620
# 317157
# 328047
# 340210
#
# Disc length: 4693 seconds
#
# Revision: 0
# Processed by: cddbd v1.4b41PL1 Copyright (c) Steve Scherf et al.
# Submitted via: inCDius 1.1b5
#
DISCID=8512531a
DTITLE=Ray Price - Ray Price And The Cherokee Cowboys Disc 7
DYEAR=1900
DGENRE=
TTITLE0=Intro - San Antonio Rose
TTITLE1=A Maiden's Prayer
TTITLE2=My Confession
TTITLE3=Whose Heart Are You Breaking Now
TTITLE4=Roly Poly
TTITLE5=Bubbles In My Beer
TTITLE6=Home In San Antone
TTITLE7=You Don't Love Me (But I'll Always Care)
TTITLE8=You Don't Care What Happens To Me
TTITLE9=Time Changes Everything
TTITLE10=The Kind Of Love I Can't Forget
TTITLE11=Hang Your Head In Shame /Outro
TTITLE12=Intro - Night Life
TTITLE13=Lonely Street
TTITLE14=The Wild Side Of Life
TTITLE15=Sittin' And Thinkin'
TTITLE16=A Girl In The Night
TTITLE17=There's No Fool Like A Young Fool
TTITLE18=If She Could See Me Now
TTITLE19=Bright Lights And Blonde Haired Women
TTITLE20=Are You Sure
TTITLE21=Let Me Talk To You
TTITLE22=This Cold War With You
TTITLE23=I've Just Destroyed The World (I'm Living In)
TTITLE24=Walkin' Slow (And Thinking 'Bout Her)
TTITLE25=Pride
EXTD=
EXTT0=
EXTT1=
EXTT2=
EXTT3=
EXTT4=
EXTT5=
EXTT6=
EXTT7=
EXTT8=
EXTT9=
EXTT10=
EXTT11=
EXTT12=
EXTT13=
EXTT14=
EXTT15=
EXTT16=
EXTT17=
EXTT18=
EXTT19=
EXTT20=
EXTT21=
EXTT22=
EXTT23=
EXTT24=
EXTT25=
PLAYORDER=
